<svg xmlns="http://www.w3.org/2000/svg" viewBox="0 0 677 369" width="677" height="369" role="img" aria-label="Bread terminal logo">
  <path fill="#FFFFFF" d="M 233.00 96.00 C 228.18 100.52 224.36 105.12 222.00 111.00 C 219.37 117.57 218.50 127.32 219.00 134.00 C 219.39 139.29 220.67 143.48 223.00 148.00 C 225.68 153.19 232.13 154.83 235.00 163.00 C 242.25 183.68 230.25 267.37 235.00 286.00 C 236.52 291.95 238.13 294.33 241.00 297.00 C 243.82 299.62 245.92 300.68 252.00 302.00 C 274.95 306.97 399.57 308.16 424.00 302.00 C 431.16 300.20 434.14 297.95 437.00 295.00 C 439.23 292.71 439.95 291.45 441.00 287.00 C 444.91 270.42 433.78 182.71 441.00 163.00 C 443.68 155.70 449.32 154.77 452.00 150.00 C 454.58 145.40 456.36 140.55 457.00 135.00 C 457.76 128.44 457.34 119.48 455.00 113.00 C 452.81 106.92 448.70 101.69 444.00 97.00 C 438.89 91.90 431.52 87.55 425.00 84.00 C 418.83 80.64 414.26 78.40 406.00 76.00 C 391.93 71.90 363.58 67.13 347.00 66.00 C 335.07 65.19 326.39 66.02 316.00 67.00 C 305.39 68.00 294.29 69.44 284.00 72.00 C 273.98 74.49 263.78 77.77 255.00 82.00 C 246.91 85.90 238.71 90.65 233.00 96.00 Z"/>
  <path fill-rule="evenodd" clip-rule="evenodd" fill="#22272B" d="M 233.00 96.00 C 228.18 100.52 224.36 105.12 222.00 111.00 C 219.37 117.57 218.50 127.32 219.00 134.00 C 219.39 139.29 220.67 143.48 223.00 148.00 C 225.68 153.19 232.13 154.83 235.00 163.00 C 242.25 183.68 230.25 267.37 235.00 286.00 C 236.52 291.95 238.13 294.33 241.00 297.00 C 243.82 299.62 245.92 300.68 252.00 302.00 C 274.95 306.97 399.57 308.16 424.00 302.00 C 431.16 300.20 434.14 297.95 437.00 295.00 C 439.23 292.71 439.95 291.45 441.00 287.00 C 444.91 270.42 433.78 182.71 441.00 163.00 C 443.68 155.70 449.32 154.77 452.00 150.00 C 454.58 145.40 456.36 140.55 457.00 135.00 C 457.76 128.44 457.34 119.48 455.00 113.00 C 452.81 106.92 448.70 101.69 444.00 97.00 C 438.89 91.90 431.52 87.55 425.00 84.00 C 418.83 80.64 414.26 78.40 406.00 76.00 C 391.93 71.90 363.58 67.13 347.00 66.00 C 335.07 65.19 326.39 66.02 316.00 67.00 C 305.39 68.00 294.29 69.44 284.00 72.00 C 273.98 74.49 263.78 77.77 255.00 82.00 C 246.91 85.90 238.71 90.65 233.00 96.00 Z M 236.00 111.00 C 240.70 104.95 252.16 97.27 260.00 93.00 C 266.44 89.50 271.52 88.07 279.00 86.00 C 289.20 83.18 303.07 80.21 316.00 79.00 C 329.97 77.69 345.66 77.61 360.00 79.00 C 373.97 80.35 388.66 82.80 401.00 87.00 C 412.06 90.77 423.64 96.26 431.00 102.00 C 436.45 106.26 440.67 110.64 443.00 116.00 C 445.31 121.32 445.92 128.39 445.00 134.00 C 444.12 139.36 440.97 145.01 438.00 149.00 C 435.46 152.40 431.30 151.88 429.00 157.00 C 421.48 173.75 434.77 272.07 429.00 286.00 C 427.65 289.26 427.35 289.61 424.00 291.00 C 407.50 297.83 268.52 298.74 252.00 291.00 C 248.48 289.35 248.34 288.69 247.00 285.00 C 241.59 270.06 254.49 173.67 247.00 157.00 C 244.70 151.89 240.54 152.40 238.00 149.00 C 235.03 145.01 232.05 138.72 231.00 134.00 C 230.15 130.15 230.27 126.67 231.00 123.00 C 231.80 119.01 232.90 114.98 236.00 111.00 Z M 250.00 114.00 C 247.10 116.53 245.19 118.87 244.00 122.00 C 242.69 125.44 242.28 130.28 243.00 134.00 C 243.69 137.59 245.68 140.95 248.00 144.00 C 250.55 147.34 255.50 147.38 258.00 153.00 C 265.57 170.01 255.06 263.56 258.00 276.00 C 258.56 278.37 258.16 278.85 260.00 280.00 C 270.82 286.73 401.52 284.73 414.00 281.00 C 415.91 280.43 416.14 280.60 417.00 279.00 C 422.10 269.55 409.97 170.96 418.00 153.00 C 420.76 146.83 426.43 146.39 429.00 143.00 C 430.99 140.37 432.40 138.08 433.00 135.00 C 433.73 131.28 433.45 125.75 432.00 122.00 C 430.64 118.49 428.73 115.87 425.00 113.00 C 418.39 107.92 402.93 102.18 392.00 99.00 C 381.94 96.07 371.95 95.00 362.00 94.00 C 352.28 93.03 343.91 92.52 333.00 93.00 C 318.78 93.62 295.80 96.46 284.00 99.00 C 277.13 100.48 273.37 101.70 268.00 104.00 C 262.05 106.55 254.16 110.38 250.00 114.00 Z M 292.00 152.00 L 294.00 152.00 L 334.00 192.00 L 334.00 194.00 L 294.00 234.00 L 291.00 234.00 L 283.00 223.00 L 312.00 194.00 L 312.00 192.00 L 283.00 163.00 Z M 337.00 222.00 L 339.00 220.00 L 393.00 220.00 L 394.00 234.00 L 339.00 235.00 L 337.00 233.00 Z"/>
</svg>